<mxfile host="app.diagrams.net" agent="Mozilla/5.0 (Macintosh; Intel Mac OS X 10.15; rv:136.0) Gecko/20100101 Firefox/136.0" version="26.2.9">
  <diagram name="第 1 页" id="mYDS95xvbz_zyYGr7Cgn">
    <mxGraphModel dx="1236" dy="753" grid="1" gridSize="10" guides="1" tooltips="1" connect="1" arrows="1" fold="1" page="1" pageScale="1" pageWidth="4681" pageHeight="3300" math="0" shadow="0">
      <root>
        <mxCell id="0" />
        <mxCell id="1" parent="0" />
        <mxCell id="ky8mfpNfNFOb4Zbde0kp-4" value="" style="edgeStyle=orthogonalEdgeStyle;rounded=0;orthogonalLoop=1;jettySize=auto;html=1;" edge="1" parent="1" source="ky8mfpNfNFOb4Zbde0kp-2" target="ky8mfpNfNFOb4Zbde0kp-3">
          <mxGeometry relative="1" as="geometry" />
        </mxCell>
        <mxCell id="ky8mfpNfNFOb4Zbde0kp-2" value="开始" style="strokeWidth=2;html=1;shape=mxgraph.flowchart.start_1;whiteSpace=wrap;" vertex="1" parent="1">
          <mxGeometry x="230" y="35" width="100" height="60" as="geometry" />
        </mxCell>
        <mxCell id="ky8mfpNfNFOb4Zbde0kp-9" value="" style="edgeStyle=orthogonalEdgeStyle;rounded=0;orthogonalLoop=1;jettySize=auto;html=1;" edge="1" parent="1" source="ky8mfpNfNFOb4Zbde0kp-3" target="ky8mfpNfNFOb4Zbde0kp-5">
          <mxGeometry relative="1" as="geometry" />
        </mxCell>
        <mxCell id="ky8mfpNfNFOb4Zbde0kp-3" value="解析用户输入SQL" style="rounded=1;whiteSpace=wrap;html=1;absoluteArcSize=1;arcSize=14;strokeWidth=2;" vertex="1" parent="1">
          <mxGeometry x="200" y="140" width="160" height="60" as="geometry" />
        </mxCell>
        <mxCell id="ky8mfpNfNFOb4Zbde0kp-11" value="" style="edgeStyle=orthogonalEdgeStyle;rounded=0;orthogonalLoop=1;jettySize=auto;html=1;entryX=0.5;entryY=0;entryDx=0;entryDy=0;" edge="1" parent="1" source="ky8mfpNfNFOb4Zbde0kp-5" target="ky8mfpNfNFOb4Zbde0kp-6">
          <mxGeometry relative="1" as="geometry">
            <mxPoint x="280" y="425" as="targetPoint" />
          </mxGeometry>
        </mxCell>
        <mxCell id="ky8mfpNfNFOb4Zbde0kp-12" value="是" style="edgeLabel;html=1;align=center;verticalAlign=middle;resizable=0;points=[];" vertex="1" connectable="0" parent="ky8mfpNfNFOb4Zbde0kp-11">
          <mxGeometry x="-0.3231" y="3" relative="1" as="geometry">
            <mxPoint x="-4" as="offset" />
          </mxGeometry>
        </mxCell>
        <mxCell id="ky8mfpNfNFOb4Zbde0kp-5" value="&lt;div&gt;根据hints语法判断&lt;/div&gt;&lt;div&gt;是否是statement queue&lt;/div&gt;&lt;div&gt;语句&lt;/div&gt;" style="strokeWidth=2;html=1;shape=mxgraph.flowchart.decision;whiteSpace=wrap;" vertex="1" parent="1">
          <mxGeometry x="195" y="230" width="170" height="90" as="geometry" />
        </mxCell>
        <mxCell id="ky8mfpNfNFOb4Zbde0kp-21" value="" style="edgeStyle=orthogonalEdgeStyle;rounded=0;orthogonalLoop=1;jettySize=auto;html=1;" edge="1" parent="1" source="ky8mfpNfNFOb4Zbde0kp-6" target="ky8mfpNfNFOb4Zbde0kp-20">
          <mxGeometry relative="1" as="geometry" />
        </mxCell>
        <mxCell id="ky8mfpNfNFOb4Zbde0kp-6" value="根军SQL解析出来的hint提示，获取进行hash计算时用的hint提示值" style="rounded=1;whiteSpace=wrap;html=1;absoluteArcSize=1;arcSize=14;strokeWidth=2;" vertex="1" parent="1">
          <mxGeometry x="200" y="350" width="160" height="80" as="geometry" />
        </mxCell>
        <mxCell id="ky8mfpNfNFOb4Zbde0kp-24" value="" style="edgeStyle=orthogonalEdgeStyle;rounded=0;orthogonalLoop=1;jettySize=auto;html=1;" edge="1" parent="1" source="ky8mfpNfNFOb4Zbde0kp-20" target="ky8mfpNfNFOb4Zbde0kp-23">
          <mxGeometry relative="1" as="geometry" />
        </mxCell>
        <mxCell id="ky8mfpNfNFOb4Zbde0kp-51" value="是" style="edgeLabel;html=1;align=center;verticalAlign=middle;resizable=0;points=[];" vertex="1" connectable="0" parent="ky8mfpNfNFOb4Zbde0kp-24">
          <mxGeometry x="-0.2" relative="1" as="geometry">
            <mxPoint as="offset" />
          </mxGeometry>
        </mxCell>
        <mxCell id="ky8mfpNfNFOb4Zbde0kp-26" value="" style="edgeStyle=orthogonalEdgeStyle;rounded=0;orthogonalLoop=1;jettySize=auto;html=1;" edge="1" parent="1" source="ky8mfpNfNFOb4Zbde0kp-20" target="ky8mfpNfNFOb4Zbde0kp-25">
          <mxGeometry relative="1" as="geometry" />
        </mxCell>
        <mxCell id="ky8mfpNfNFOb4Zbde0kp-50" value="否" style="edgeLabel;html=1;align=center;verticalAlign=middle;resizable=0;points=[];" vertex="1" connectable="0" parent="ky8mfpNfNFOb4Zbde0kp-26">
          <mxGeometry x="0.0099" relative="1" as="geometry">
            <mxPoint as="offset" />
          </mxGeometry>
        </mxCell>
        <mxCell id="ky8mfpNfNFOb4Zbde0kp-20" value="&lt;div&gt;获取hint提示值&lt;/div&gt;&lt;div&gt;是否正确&lt;/div&gt;" style="rhombus;whiteSpace=wrap;html=1;rounded=1;absoluteArcSize=1;arcSize=14;strokeWidth=2;" vertex="1" parent="1">
          <mxGeometry x="199" y="470" width="162" height="80" as="geometry" />
        </mxCell>
        <mxCell id="ky8mfpNfNFOb4Zbde0kp-30" value="" style="edgeStyle=orthogonalEdgeStyle;rounded=0;orthogonalLoop=1;jettySize=auto;html=1;" edge="1" parent="1" source="ky8mfpNfNFOb4Zbde0kp-23" target="ky8mfpNfNFOb4Zbde0kp-29">
          <mxGeometry relative="1" as="geometry" />
        </mxCell>
        <mxCell id="ky8mfpNfNFOb4Zbde0kp-23" value="对hint提示值进行hash计算并根据计算结果进行排队检测" style="whiteSpace=wrap;html=1;rounded=1;absoluteArcSize=1;arcSize=14;strokeWidth=2;" vertex="1" parent="1">
          <mxGeometry x="200" y="590" width="160" height="60" as="geometry" />
        </mxCell>
        <mxCell id="ky8mfpNfNFOb4Zbde0kp-25" value="输出hint提示值获取失败原因至warnings 信息" style="whiteSpace=wrap;html=1;rounded=1;absoluteArcSize=1;arcSize=14;strokeWidth=2;" vertex="1" parent="1">
          <mxGeometry x="462" y="480" width="120" height="60" as="geometry" />
        </mxCell>
        <mxCell id="ky8mfpNfNFOb4Zbde0kp-32" value="" style="edgeStyle=orthogonalEdgeStyle;rounded=0;orthogonalLoop=1;jettySize=auto;html=1;" edge="1" parent="1" source="ky8mfpNfNFOb4Zbde0kp-29" target="ky8mfpNfNFOb4Zbde0kp-31">
          <mxGeometry relative="1" as="geometry" />
        </mxCell>
        <mxCell id="ky8mfpNfNFOb4Zbde0kp-38" value="否" style="edgeLabel;html=1;align=center;verticalAlign=middle;resizable=0;points=[];" vertex="1" connectable="0" parent="ky8mfpNfNFOb4Zbde0kp-32">
          <mxGeometry x="-0.4" y="1" relative="1" as="geometry">
            <mxPoint x="-1" as="offset" />
          </mxGeometry>
        </mxCell>
        <mxCell id="ky8mfpNfNFOb4Zbde0kp-39" value="" style="edgeStyle=orthogonalEdgeStyle;rounded=0;orthogonalLoop=1;jettySize=auto;html=1;" edge="1" parent="1" source="ky8mfpNfNFOb4Zbde0kp-29">
          <mxGeometry relative="1" as="geometry">
            <mxPoint x="430" y="770" as="targetPoint" />
          </mxGeometry>
        </mxCell>
        <mxCell id="ky8mfpNfNFOb4Zbde0kp-43" value="是" style="edgeLabel;html=1;align=center;verticalAlign=middle;resizable=0;points=[];" vertex="1" connectable="0" parent="ky8mfpNfNFOb4Zbde0kp-39">
          <mxGeometry x="-0.149" y="-1" relative="1" as="geometry">
            <mxPoint y="-1" as="offset" />
          </mxGeometry>
        </mxCell>
        <mxCell id="ky8mfpNfNFOb4Zbde0kp-29" value="&lt;div&gt;是否需要排队等待&lt;/div&gt;" style="rhombus;whiteSpace=wrap;html=1;rounded=1;absoluteArcSize=1;arcSize=14;strokeWidth=2;" vertex="1" parent="1">
          <mxGeometry x="200" y="720" width="160" height="100" as="geometry" />
        </mxCell>
        <mxCell id="ky8mfpNfNFOb4Zbde0kp-36" value="" style="edgeStyle=orthogonalEdgeStyle;rounded=0;orthogonalLoop=1;jettySize=auto;html=1;" edge="1" parent="1" source="ky8mfpNfNFOb4Zbde0kp-31" target="ky8mfpNfNFOb4Zbde0kp-35">
          <mxGeometry relative="1" as="geometry" />
        </mxCell>
        <mxCell id="ky8mfpNfNFOb4Zbde0kp-31" value="执行SQL" style="whiteSpace=wrap;html=1;rounded=1;absoluteArcSize=1;arcSize=14;strokeWidth=2;" vertex="1" parent="1">
          <mxGeometry x="200" y="880" width="160" height="60" as="geometry" />
        </mxCell>
        <mxCell id="ky8mfpNfNFOb4Zbde0kp-33" value="结束" style="strokeWidth=2;html=1;shape=mxgraph.flowchart.terminator;whiteSpace=wrap;" vertex="1" parent="1">
          <mxGeometry x="230" y="1110" width="100" height="60" as="geometry" />
        </mxCell>
        <mxCell id="ky8mfpNfNFOb4Zbde0kp-37" value="" style="edgeStyle=orthogonalEdgeStyle;rounded=0;orthogonalLoop=1;jettySize=auto;html=1;" edge="1" parent="1" source="ky8mfpNfNFOb4Zbde0kp-35" target="ky8mfpNfNFOb4Zbde0kp-33">
          <mxGeometry relative="1" as="geometry" />
        </mxCell>
        <mxCell id="ky8mfpNfNFOb4Zbde0kp-35" value="SQL 执行完成,通知排队队列下一个SQL可以执行" style="whiteSpace=wrap;html=1;rounded=1;absoluteArcSize=1;arcSize=14;strokeWidth=2;" vertex="1" parent="1">
          <mxGeometry x="200" y="1000" width="160" height="60" as="geometry" />
        </mxCell>
        <mxCell id="ky8mfpNfNFOb4Zbde0kp-40" value="需要排队等待&lt;div&gt;其他SQL执行完成&lt;/div&gt;&lt;div&gt;再执行&lt;/div&gt;" style="strokeWidth=2;html=1;shape=mxgraph.flowchart.delay;whiteSpace=wrap;" vertex="1" parent="1">
          <mxGeometry x="430" y="740" width="100" height="60" as="geometry" />
        </mxCell>
        <mxCell id="ky8mfpNfNFOb4Zbde0kp-47" value="" style="endArrow=classic;html=1;rounded=0;exitX=0;exitY=0.5;exitDx=0;exitDy=0;exitPerimeter=0;entryX=0;entryY=0.25;entryDx=0;entryDy=0;" edge="1" parent="1">
          <mxGeometry width="50" height="50" relative="1" as="geometry">
            <mxPoint x="195" y="288" as="sourcePoint" />
            <mxPoint x="200" y="908" as="targetPoint" />
            <Array as="points">
              <mxPoint x="120" y="288" />
              <mxPoint x="120" y="908" />
            </Array>
          </mxGeometry>
        </mxCell>
        <mxCell id="ky8mfpNfNFOb4Zbde0kp-48" value="否" style="edgeLabel;html=1;align=center;verticalAlign=middle;resizable=0;points=[];" vertex="1" connectable="0" parent="ky8mfpNfNFOb4Zbde0kp-47">
          <mxGeometry x="-0.2748" relative="1" as="geometry">
            <mxPoint as="offset" />
          </mxGeometry>
        </mxCell>
        <mxCell id="ky8mfpNfNFOb4Zbde0kp-49" value="" style="endArrow=classic;html=1;rounded=0;exitX=1;exitY=0.5;exitDx=0;exitDy=0;entryX=1.006;entryY=0.65;entryDx=0;entryDy=0;entryPerimeter=0;" edge="1" parent="1" source="ky8mfpNfNFOb4Zbde0kp-25" target="ky8mfpNfNFOb4Zbde0kp-31">
          <mxGeometry width="50" height="50" relative="1" as="geometry">
            <mxPoint x="700" y="540" as="sourcePoint" />
            <mxPoint x="640" y="910" as="targetPoint" />
            <Array as="points">
              <mxPoint x="640" y="510" />
              <mxPoint x="640" y="920" />
            </Array>
          </mxGeometry>
        </mxCell>
        <mxCell id="ky8mfpNfNFOb4Zbde0kp-52" value="" style="endArrow=classic;html=1;rounded=0;exitX=0.5;exitY=1;exitDx=0;exitDy=0;exitPerimeter=0;entryX=1;entryY=0.25;entryDx=0;entryDy=0;" edge="1" parent="1" source="ky8mfpNfNFOb4Zbde0kp-40" target="ky8mfpNfNFOb4Zbde0kp-31">
          <mxGeometry width="50" height="50" relative="1" as="geometry">
            <mxPoint x="450" y="890" as="sourcePoint" />
            <mxPoint x="480" y="900" as="targetPoint" />
            <Array as="points">
              <mxPoint x="480" y="895" />
            </Array>
          </mxGeometry>
        </mxCell>
      </root>
    </mxGraphModel>
  </diagram>
</mxfile>
